<?xml version="1.0" encoding="UTF-8" standalone="no"?>
<!-- Created with Inkscape (http://www.inkscape.org/) -->

<svg
   width="108"
   height="108"
   viewBox="0 0 38.855519 38.855519"
   version="1.1"
   id="svg5"
   inkscape:version="1.2.2 (732a01da63, 2022-12-09)"
   sodipodi:docname="foreground.svg"
   xmlns:inkscape="http://www.inkscape.org/namespaces/inkscape"
   xmlns:sodipodi="http://sodipodi.sourceforge.net/DTD/sodipodi-0.dtd"
   xmlns="http://www.w3.org/2000/svg"
   xmlns:svg="http://www.w3.org/2000/svg">
  <sodipodi:namedview
     id="namedview7"
     pagecolor="#ffffff"
     bordercolor="#000000"
     borderopacity="0.25"
     inkscape:showpageshadow="2"
     inkscape:pageopacity="0.0"
     inkscape:pagecheckerboard="0"
     inkscape:deskcolor="#d1d1d1"
     inkscape:document-units="mm"
     showgrid="false"
     inkscape:zoom="6.5389028"
     inkscape:cx="55.743297"
     inkscape:cy="49.626063"
     inkscape:window-width="1920"
     inkscape:window-height="991"
     inkscape:window-x="-9"
     inkscape:window-y="-9"
     inkscape:window-maximized="1"
     inkscape:current-layer="svg5" />
  <defs
     id="defs2">
    <rect
       x="90.687997"
       y="78.759391"
       width="71.877502"
       height="52.761145"
       id="rect3760" />
    <filter
       style="color-interpolation-filters:sRGB"
       inkscape:label="Drop Shadow"
       id="filter2400"
       x="-0.049591922"
       y="-0.051429326"
       width="1.0495919"
       height="1.0514293">
      <feFlood
         flood-opacity="1"
         flood-color="rgb(255,254,72)"
         result="flood"
         id="feFlood2390" />
      <feComposite
         in="flood"
         in2="SourceGraphic"
         operator="in"
         result="composite1"
         id="feComposite2392" />
      <feGaussianBlur
         in="composite1"
         stdDeviation="2.77556e-17"
         result="blur"
         id="feGaussianBlur2394" />
      <feOffset
         dx="-0.5"
         dy="-0.7"
         result="offset"
         id="feOffset2396" />
      <feComposite
         in="SourceGraphic"
         in2="offset"
         operator="over"
         result="composite2"
         id="feComposite2398" />
    </filter>
    <filter
       style="color-interpolation-filters:sRGB"
       inkscape:label="Drop Shadow"
       id="filter2448"
       x="-0.039112172"
       y="-0.048150756"
       width="1.0391122"
       height="1.0481508">
      <feFlood
         flood-opacity="1"
         flood-color="rgb(13,255,105)"
         result="flood"
         id="feFlood2438" />
      <feComposite
         in="flood"
         in2="SourceGraphic"
         operator="in"
         result="composite1"
         id="feComposite2440" />
      <feGaussianBlur
         in="composite1"
         stdDeviation="2.77556e-17"
         result="blur"
         id="feGaussianBlur2442" />
      <feOffset
         dx="-0.5"
         dy="-0.7"
         result="offset"
         id="feOffset2444" />
      <feComposite
         in="SourceGraphic"
         in2="offset"
         operator="over"
         result="composite2"
         id="feComposite2446" />
    </filter>
  </defs>
  <g
     aria-label="Ludo Game"
     transform="matrix(0.89968754,0,0,1.111497,0.0521722,-0.22561449)"
     id="text3929-1"
     style="font-size:4.49443px;font-family:'Segoe Script';-inkscape-font-specification:'Segoe Script';display:inline;fill:#000000;stroke-width:0.187268">
    <path
       d="m 10.659571,18.737485 q -0.04389,0.05486 -0.111922,0.08998 -0.06803,0.03292 -0.1207,0.03292 -0.03072,0 -0.07681,0.0022 -0.04608,0 -0.09656,0.0022 -0.04828,0 -0.09436,0.0022 -0.04609,0 -0.07681,0 -0.1404512,0 -0.2940694,0.02414 -0.1514237,0.02195 -0.3028474,0.05925 -0.1514236,0.03511 -0.3006527,0.07462 -0.1470346,0.0417 -0.2787074,0.07681 -0.1316727,0.03731 -0.2457891,0.05925 -0.1119219,0.02414 -0.1931201,0.02414 -0.1316727,0 -0.2062873,-0.06145 -0.07242,-0.05925 -0.076809,-0.142645 -0.00439,-0.05267 0,-0.125089 0.00439,-0.07242 0.017556,-0.158008 0.013167,-0.08559 0.030724,-0.179952 0.017556,-0.09656 0.039502,-0.195315 0.013167,-0.06584 0.032918,-0.171174 0.021946,-0.105339 0.041696,-0.219455 0.019751,-0.116311 0.037307,-0.223844 0.017556,-0.109727 0.028529,-0.179953 0.02414,-0.160201 0.043891,-0.287485 0.021945,-0.129478 0.039502,-0.247984 0.019751,-0.118505 0.037307,-0.239205 0.017556,-0.122895 0.032918,-0.274318 0.013167,-0.164591 0.017556,-0.29407 0.00658,-0.129478 0.028529,-0.21726 0.02414,-0.08998 0.074615,-0.136062 0.052669,-0.04828 0.1602019,-0.04828 0.061447,0 0.1009491,0.02414 0.041696,0.02414 0.068031,0.06364 0.026335,0.0395 0.039502,0.08998 0.013167,0.05047 0.017556,0.100949 0.00219,0.01536 -0.015362,0.09875 -0.015362,0.08339 -0.041696,0.208482 -0.026335,0.122895 -0.059253,0.274318 -0.032918,0.151424 -0.065836,0.307237 -0.030724,0.155813 -0.059253,0.302847 -0.026335,0.14484 -0.041696,0.254568 -0.013167,0.09656 -0.032918,0.208481 -0.017556,0.109728 -0.037307,0.223844 -0.019751,0.111922 -0.039502,0.223844 -0.019751,0.111922 -0.035113,0.210676 -0.015362,0.09656 -0.02414,0.175564 -0.00658,0.07681 -0.00219,0.122894 0.00439,0.0395 0.032918,0.07242 0.028529,0.03292 0.076809,0.03292 0.052669,0 0.1316728,-0.01317 0.081198,-0.01536 0.1711745,-0.03731 0.092171,-0.02414 0.1865364,-0.05047 0.094366,-0.02853 0.1799528,-0.05267 0.019751,-0.0066 0.074615,-0.01756 0.057058,-0.01317 0.1294782,-0.02853 0.074615,-0.01536 0.1580073,-0.03072 0.083393,-0.01536 0.1558127,-0.02853 0.074615,-0.01317 0.1316727,-0.02194 0.05706,-0.0088 0.079,-0.0088 0.02853,0 0.079,-0.0066 0.05267,-0.0066 0.118506,-0.01097 0.06584,-0.0044 0.142645,-0.0044 0.07681,0 0.153618,0.01536 0.0395,0.0088 0.05925,0.0395 0.01975,0.02853 0.02195,0.06803 0.0022,0.0395 -0.0088,0.079 -0.01097,0.0395 -0.03292,0.06803 z"
       style="fill:#000000"
       id="path5152-8" />
    <path
       d="m 13.960168,18.195432 q 0,0.01975 -0.0088,0.04609 -0.0088,0.02633 -0.02195,0.05486 -0.01317,0.02853 -0.02853,0.05486 -0.01536,0.02414 -0.02853,0.04389 -0.0417,0.05706 -0.105339,0.114117 -0.06145,0.05706 -0.14045,0.105338 -0.07681,0.04608 -0.168981,0.07681 -0.08998,0.02853 -0.18873,0.02853 -0.127284,0 -0.234817,-0.0417 -0.105338,-0.04389 -0.188731,-0.136062 -0.0812,-0.09217 -0.140451,-0.239206 -0.05706,-0.147034 -0.08998,-0.355516 -0.06145,0.0812 -0.14484,0.188731 -0.0812,0.107532 -0.179953,0.219454 -0.09656,0.111922 -0.206287,0.221649 -0.107533,0.107533 -0.21726,0.19312 -0.109728,0.08559 -0.21726,0.138257 -0.105339,0.05267 -0.201899,0.05267 -0.02194,0 -0.07242,-0.02853 -0.04828,-0.03072 -0.100949,-0.07681 -0.05267,-0.04609 -0.09875,-0.105338 -0.04609,-0.05925 -0.06145,-0.118506 -0.03731,-0.129478 -0.03731,-0.263345 0,-0.136062 0.02195,-0.267735 0.02633,-0.147035 0.07681,-0.307236 0.05267,-0.160202 0.107532,-0.311626 0.05486,-0.153618 0.09876,-0.28968 0.04389,-0.138256 0.05267,-0.2414 0.0088,-0.01536 0.03511,-0.03511 0.02633,-0.02194 0.05706,-0.0395 0.03072,-0.01975 0.05925,-0.03072 0.03072,-0.01317 0.04828,-0.01317 0.02633,0 0.05706,0.01756 0.03072,0.01756 0.05706,0.04389 0.02633,0.02633 0.0417,0.05486 0.01756,0.02853 0.01756,0.05047 0,0.01756 -0.01317,0.05925 -0.01097,0.0417 -0.03072,0.09656 -0.01975,0.05267 -0.04608,0.111922 -0.02633,0.05706 -0.05267,0.105338 -0.05047,0.116311 -0.100949,0.221649 -0.04828,0.103144 -0.08778,0.208482 -0.0395,0.103143 -0.06584,0.21726 -0.02414,0.111922 -0.02414,0.245789 0,0.03511 0.0088,0.08998 0.0088,0.05267 0.02414,0.105338 0.01756,0.05047 0.0417,0.08778 0.02633,0.03511 0.06145,0.03511 0.03511,0 0.079,-0.01756 0.04389,-0.01756 0.08998,-0.0417 0.04608,-0.02633 0.08778,-0.05486 0.04389,-0.03072 0.07681,-0.05486 0.08559,-0.06364 0.171175,-0.149229 0.08778,-0.08559 0.162396,-0.173369 0.07681,-0.08778 0.136062,-0.164591 0.06145,-0.079 0.09217,-0.127284 0.04828,-0.07681 0.08998,-0.166785 0.04389,-0.09217 0.0812,-0.182148 0.0395,-0.09217 0.079,-0.177758 0.0395,-0.08778 0.0812,-0.153618 0.04389,-0.06584 0.09217,-0.105338 0.04828,-0.0417 0.109727,-0.0417 0.04828,0 0.07242,0.01756 0.02633,0.01756 0.03731,0.04389 0.01317,0.02633 0.01536,0.05706 0.0022,0.03072 0.0022,0.05706 0,0.01756 -0.02633,0.079 -0.02633,0.05925 -0.05706,0.14484 -0.03072,0.08339 -0.05706,0.184342 -0.02633,0.09875 -0.02633,0.195314 0,0.142646 0.03072,0.263346 0.03072,0.1207 0.08559,0.210676 0.05486,0.08998 0.129479,0.140451 0.07681,0.05048 0.166785,0.05048 0.09875,0 0.212871,-0.03731 0.114117,-0.03731 0.221649,-0.116311 0.0066,-0.0066 0.02634,-0.02414 0.02194,-0.01975 0.04608,-0.0395 0.02633,-0.01975 0.04828,-0.03511 0.02195,-0.01536 0.03292,-0.01536 0.01756,0 0.03292,0.01097 0.01536,0.01097 0.01536,0.03511 z"
       style="fill:#000000"
       id="path5149-9" />
    <path
       d="m 17.425357,18.217378 q 0,0.01317 -0.01097,0.0417 -0.0088,0.02853 -0.02195,0.05925 -0.01317,0.02853 -0.02853,0.05706 -0.01317,0.02633 -0.02194,0.03731 -0.08559,0.12509 -0.177758,0.230428 -0.09217,0.105338 -0.195315,0.184342 -0.100949,0.07681 -0.21726,0.1207 -0.114116,0.0417 -0.245789,0.0417 -0.05267,0 -0.111922,-0.02414 -0.05706,-0.02414 -0.111922,-0.06803 -0.05267,-0.04389 -0.100949,-0.103144 -0.04828,-0.05925 -0.0812,-0.129478 -0.0395,-0.08339 -0.07023,-0.190925 -0.02853,-0.109728 -0.04828,-0.234817 -0.01756,-0.125089 -0.02633,-0.261151 -0.0088,-0.138256 -0.0088,-0.283096 -0.274319,0.511329 -0.711033,0.908542 -0.438909,0.399407 -0.908542,0.399407 -0.129478,0 -0.197509,-0.138256 -0.06803,-0.136062 -0.06803,-0.283096 0,-0.19751 0.03292,-0.29407 0.09217,-0.280902 0.210676,-0.526691 0.1207,-0.245789 0.291875,-0.4828 0.111922,-0.153618 0.254567,-0.307236 0.14484,-0.153618 0.272124,-0.219455 0.158007,-0.08559 0.454271,-0.08559 0.103144,0 0.175564,0.114116 0.07242,0.114117 0.109727,0.26554 0.03731,0.160202 0.03731,0.250179 0.03292,-0.107533 0.05925,-0.21726 0.02633,-0.111922 0.04608,-0.230428 0.01975,-0.118505 0.03511,-0.247983 0.01756,-0.131673 0.03072,-0.280902 0.0044,-0.0395 0.0088,-0.100949 0.0044,-0.06145 0.01097,-0.14484 0.01317,-0.171175 0.02633,-0.287486 0.01317,-0.118505 0.03511,-0.153618 0.05267,-0.08998 0.184342,-0.08998 0.06584,0 0.129478,0.02853 0.06803,0.02633 0.06803,0.07461 0,0.02633 -0.01097,0.08559 -0.0088,0.05925 -0.02633,0.153619 -0.01756,0.09437 -0.04828,0.234816 -0.02853,0.138256 -0.06364,0.331376 -0.0022,0.02195 -0.01317,0.08778 -0.01097,0.06584 -0.02414,0.140451 -0.01317,0.07242 -0.02414,0.136062 -0.01097,0.06145 -0.01317,0.07681 -0.02853,0.177758 -0.0417,0.335766 -0.01317,0.158007 -0.01317,0.318209 0,0.559609 0.08998,0.836122 0.09217,0.276513 0.234816,0.276513 0.08339,0 0.160202,-0.02414 0.07681,-0.02633 0.151424,-0.07681 0.07681,-0.05047 0.155813,-0.12509 0.079,-0.07681 0.166785,-0.177758 0.05047,-0.05706 0.09217,-0.100949 0.0417,-0.04389 0.079,-0.04389 0.02414,0 0.03072,0.03731 0.0088,0.03511 0.0088,0.07023 z m -1.705163,-0.594722 q -0.05706,-0.01317 -0.08778,-0.05706 -0.02853,-0.04389 -0.02853,-0.09876 0,-0.04389 0.01317,-0.129478 0.01317,-0.08559 0.01317,-0.131673 0,-0.0395 -0.02194,-0.08778 -0.01975,-0.05047 -0.05267,-0.09217 -0.03292,-0.04389 -0.07461,-0.07242 -0.0395,-0.03072 -0.079,-0.03072 -0.116311,0 -0.316014,0.243594 -0.100949,0.12509 -0.186537,0.239206 -0.08339,0.114116 -0.153618,0.226038 -0.07681,0.1207 -0.131673,0.221649 -0.05267,0.100949 -0.08998,0.179953 -0.129478,0.278707 -0.129478,0.438909 0,0.204093 0.138256,0.204093 0.122895,0 0.33796,-0.142645 0.221649,-0.151424 0.342349,-0.272124 0.125089,-0.131673 0.208482,-0.221649 0.08339,-0.08998 0.131673,-0.14484 0.04828,-0.05486 0.08778,-0.122895 0.0417,-0.06803 0.079,-0.149229 z"
       id="path5146-9"
       style="fill:#000000" />
    <path
       d="m 19.317055,17.53268 q 0,0.07023 -0.0066,0.133867 -0.0066,0.06364 -0.01975,0.122894 -0.01317,0.05925 -0.03511,0.1207 -0.02195,0.05925 -0.05267,0.122895 -0.03072,0.06803 -0.111922,0.162396 -0.0812,0.09437 -0.195315,0.195315 -0.111922,0.100949 -0.247983,0.199704 -0.133868,0.09875 -0.272124,0.177758 -0.138256,0.079 -0.272124,0.127284 -0.131673,0.04828 -0.239205,0.04828 -0.147035,0 -0.256762,-0.04828 -0.109727,-0.05047 -0.182147,-0.129479 -0.07242,-0.0812 -0.109728,-0.184341 -0.03511,-0.103144 -0.03511,-0.208482 0,-0.07023 0.01756,-0.160202 0.01756,-0.08998 0.04609,-0.186537 0.02853,-0.09656 0.06803,-0.197509 0.0395,-0.100949 0.08339,-0.19312 0.04389,-0.09217 0.08998,-0.171174 0.04609,-0.079 0.08998,-0.133868 0.07681,-0.09656 0.184342,-0.188731 0.109727,-0.09217 0.239205,-0.162396 0.129478,-0.07242 0.276513,-0.116311 0.149229,-0.04389 0.307236,-0.04389 0.118506,0 0.232622,0.05925 0.114117,0.05706 0.201898,0.155813 0.08998,0.09875 0.14484,0.228232 0.05486,0.129479 0.05486,0.26993 z m -0.342349,0.06364 q 0,-0.21726 -0.125089,-0.340154 -0.122895,-0.122895 -0.355517,-0.122895 -0.079,0 -0.160201,0.0417 -0.0812,0.0417 -0.155813,0.103143 -0.07462,0.06145 -0.138257,0.131673 -0.06145,0.06803 -0.103143,0.122895 -0.0417,0.05706 -0.09217,0.155812 -0.05048,0.09656 -0.09656,0.208482 -0.04389,0.109727 -0.07462,0.221649 -0.02853,0.109728 -0.02853,0.19312 0,0.05047 0.01975,0.103144 0.01975,0.05047 0.05486,0.09217 0.03731,0.0395 0.08778,0.06584 0.05047,0.02633 0.111921,0.02633 0.06584,0 0.16898,-0.0395 0.105339,-0.0395 0.22165,-0.107533 0.118505,-0.07022 0.23701,-0.164591 0.118506,-0.09656 0.212871,-0.208481 0.09656,-0.111922 0.155813,-0.234817 0.05925,-0.122894 0.05925,-0.247984 z"
       style="fill:#000000"
       id="path5143-3" />
    <path
       d="m 24.790252,15.978941 q 0,0.09875 -0.05486,0.16898 -0.05267,0.06803 -0.151424,0.06803 -0.03731,0 -0.08339,-0.03292 -0.04389,-0.03511 -0.0812,-0.06803 -0.03511,-0.03511 -0.0812,-0.06145 -0.04609,-0.02633 -0.100949,-0.02633 -0.26993,0 -0.695671,0.179953 -0.212871,0.09217 -0.397213,0.210676 -0.184342,0.116311 -0.3621,0.263346 -0.177759,0.147034 -0.33796,0.326987 -0.158008,0.177758 -0.278708,0.355517 -0.111922,0.160201 -0.175563,0.388434 -0.05925,0.223844 -0.05925,0.436715 0,0.100949 0.103144,0.210676 0.103143,0.105338 0.21287,0.136062 0.133868,0.03511 0.31821,0.03511 0.138256,0.0022 0.296263,-0.03292 0.158008,-0.03731 0.316015,-0.09876 0.158007,-0.06364 0.307236,-0.142645 0.149229,-0.0812 0.272124,-0.16898 0.04389,-0.03511 0.09217,-0.0812 0.05047,-0.04828 0.100949,-0.111922 0.05267,-0.06364 0.08778,-0.118505 0.03731,-0.05486 0.05925,-0.103144 0.01536,-0.02194 0.01536,-0.05706 0,-0.03292 -0.01536,-0.0812 -0.01317,-0.05048 -0.01317,-0.0812 0,-0.0812 0.19751,-0.0812 0.06145,0 0.184341,0.09217 0.122895,0.09217 0.122895,0.142646 0,0.0066 -0.136062,0.278707 -0.06803,0.136062 -0.105338,0.210677 -0.03511,0.07461 -0.0417,0.08998 -0.03731,0.08559 -0.07461,0.19312 -0.03731,0.105338 -0.07462,0.234817 -0.07681,0.261151 -0.07681,0.370878 -0.0044,0.02414 0.0044,0.04608 0.01097,0.02414 0.02195,0.0417 0.01317,0.01975 0.02414,0.03292 0.01317,0.01536 0.01317,0.01975 0,0.05267 -0.01975,0.09656 -0.01756,0.04609 -0.05047,0.079 -0.03072,0.03511 -0.07681,0.05486 -0.04389,0.01975 -0.09656,0.01975 -0.114117,0 -0.153619,-0.079 -0.0395,-0.07681 -0.0395,-0.208482 0,-0.03511 0.0022,-0.06803 0.0044,-0.03292 0.0088,-0.06584 0.01317,-0.06803 0.03292,-0.151424 0.01097,-0.0417 0.01975,-0.07242 0.0088,-0.03292 0.01317,-0.05486 0.03072,-0.122895 0.03072,-0.166786 0,-0.02194 -0.0088,-0.02194 -0.04609,0 -0.287485,0.1207 -0.122895,0.05925 -0.19751,0.09436 -0.07242,0.03511 -0.09875,0.04609 -0.381851,0.155813 -0.719811,0.155813 -0.21726,0 -0.45866,-0.08778 -0.245789,-0.08998 -0.412575,-0.256762 -0.166785,-0.16898 -0.166785,-0.390629 0,-0.649586 0.599111,-1.345257 0.263345,-0.305042 0.513523,-0.515718 0.245789,-0.204093 0.601306,-0.38624 0.05706,-0.03072 0.129478,-0.06145 0.07242,-0.03292 0.160202,-0.06584 0.177758,-0.06803 0.353322,-0.118505 0.175564,-0.05048 0.326987,-0.07023 0.09437,-0.01317 0.283097,-0.01317 0.06803,-0.0022 0.133867,0.02633 0.06584,0.02633 0.116311,0.07681 0.05047,0.04828 0.0812,0.111922 0.03072,0.06364 0.02853,0.131673 z"
       style="fill:#000000"
       id="path5140-1" />
    <path
       d="m 26.431773,17.33956 q 0,-0.164591 -0.05047,-0.237011 -0.04828,-0.07242 -0.111922,-0.07242 -0.05486,0 -0.111921,0.02195 -0.05486,0.01975 -0.105339,0.05267 -0.05047,0.03292 -0.09217,0.07242 -0.0417,0.0395 -0.06803,0.07681 -0.05267,0.07023 -0.111921,0.160202 -0.05706,0.08998 -0.116311,0.188731 -0.05706,0.09876 -0.109728,0.201898 -0.05267,0.103144 -0.09436,0.201898 -0.0395,0.09656 -0.06364,0.186537 -0.02414,0.08778 -0.02414,0.158007 0,0.103144 0.0395,0.166786 0.0395,0.06145 0.149229,0.06145 0.03731,0 0.109727,-0.04609 0.07242,-0.04828 0.153619,-0.120701 0.08339,-0.07242 0.162396,-0.155812 0.079,-0.08559 0.129478,-0.162397 0.05486,-0.0812 0.109727,-0.177758 0.05706,-0.09656 0.103144,-0.197509 0.04609,-0.100949 0.07462,-0.197509 0.02853,-0.09876 0.02853,-0.182147 z m 1.226751,0.978767 q 0,0.03511 -0.01536,0.0812 -0.01317,0.04389 -0.04389,0.08998 -0.0395,0.06803 -0.105338,0.140451 -0.06364,0.07023 -0.14484,0.129478 -0.079,0.05706 -0.173369,0.09436 -0.09437,0.03731 -0.195315,0.03731 -0.131673,0 -0.228233,-0.05925 -0.09436,-0.05925 -0.16459,-0.160202 -0.06803,-0.103144 -0.114117,-0.239206 -0.04389,-0.136061 -0.07242,-0.287485 -0.09656,0.140451 -0.230427,0.278707 -0.131673,0.138257 -0.274318,0.250178 -0.140451,0.109728 -0.278708,0.179953 -0.136062,0.06803 -0.2414,0.06803 -0.07023,0 -0.136062,-0.03511 -0.06364,-0.03511 -0.114116,-0.09436 -0.04828,-0.05925 -0.07681,-0.136062 -0.02853,-0.07681 -0.02853,-0.162396 0,-0.08559 0.01317,-0.179953 0.01536,-0.09437 0.04828,-0.201898 0.03511,-0.109728 0.08778,-0.237011 0.05486,-0.127284 0.133867,-0.278708 0.08778,-0.171174 0.208482,-0.322598 0.1207,-0.153618 0.245789,-0.267734 0.125089,-0.116311 0.237011,-0.182148 0.114117,-0.06803 0.184342,-0.06803 0.01975,0 0.04389,0.0088 0.02633,0.0088 0.05267,0.01975 0.02853,0.0088 0.05267,0.01756 0.02633,0.0066 0.04389,0.0066 0.01756,0 0.03511,-0.0066 0.01756,-0.0088 0.03511,-0.01756 0.01756,-0.01097 0.03511,-0.01975 0.01756,-0.0088 0.03511,-0.0088 0.02633,0 0.05706,0.01756 0.03072,0.01756 0.05925,0.04608 0.02853,0.02634 0.05047,0.06145 0.02195,0.03511 0.03072,0.06803 0.0088,0.0395 0.02195,0.05925 0.01536,0.01756 0.02853,0.03292 0.01536,0.01536 0.02414,0.03731 0.01097,0.01975 0.01097,0.06364 0,0.02195 -0.01536,0.09217 -0.01536,0.07023 -0.03511,0.164591 -0.01756,0.09217 -0.03292,0.19312 -0.01536,0.100949 -0.01536,0.184342 0,0.234817 0.02633,0.384046 0.02633,0.149229 0.07242,0.237011 0.04609,0.08559 0.107533,0.118505 0.06364,0.03292 0.133867,0.03292 0.166786,0 0.272124,-0.05706 0.107533,-0.05706 0.190926,-0.16898 0.02414,-0.03072 0.0417,-0.05486 0.01756,-0.02414 0.03511,-0.02414 0.03072,0 0.05486,0.02414 0.02633,0.02414 0.02633,0.05047 z"
       style="fill:#000000"
       id="path5137-0" />
    <path
       d="m 32.545778,17.903558 q 0,0.01975 -0.01097,0.06145 -0.01097,0.0417 -0.03292,0.09656 -0.01975,0.05267 -0.04828,0.114117 -0.02633,0.05925 -0.05925,0.114116 -0.06584,0.109727 -0.138257,0.201898 -0.07023,0.08998 -0.151423,0.155813 -0.079,0.06364 -0.173369,0.100949 -0.09437,0.03511 -0.208482,0.03511 -0.09437,0 -0.182148,-0.05047 -0.08778,-0.05047 -0.162396,-0.140451 -0.07242,-0.09217 -0.129478,-0.21726 -0.05706,-0.127283 -0.08998,-0.280902 -0.02633,-0.1207 -0.04609,-0.232622 -0.01756,-0.111921 -0.0395,-0.197509 -0.01975,-0.08559 -0.04609,-0.136062 -0.02633,-0.05047 -0.06584,-0.05047 -0.04609,0 -0.09875,0.0417 -0.05048,0.0395 -0.114117,0.129478 -0.06364,0.08778 -0.142645,0.230428 -0.07681,0.142645 -0.175564,0.344544 -0.079,0.162396 -0.142645,0.276512 -0.06145,0.114117 -0.116311,0.186537 -0.05486,0.07023 -0.103144,0.103143 -0.04828,0.03292 -0.09876,0.03292 -0.03731,0 -0.07461,-0.01536 -0.03731,-0.01536 -0.07023,-0.0395 -0.03072,-0.02633 -0.05706,-0.05925 -0.02414,-0.03292 -0.03731,-0.06803 -0.02414,-0.07242 -0.0417,-0.195314 -0.01536,-0.125089 -0.03292,-0.294069 -0.01756,-0.155813 -0.03072,-0.263346 -0.01317,-0.109727 -0.03072,-0.186536 -0.01536,-0.07681 -0.03731,-0.129479 -0.01975,-0.05267 -0.05267,-0.09656 -0.07681,0.0044 -0.226038,0.182148 -0.151424,0.179952 -0.267735,0.359905 -0.114116,0.177758 -0.219455,0.355517 -0.03072,0.05267 -0.07023,0.1207 -0.0395,0.06803 -0.0812,0.138256 -0.0395,0.06803 -0.079,0.129478 -0.03731,0.06145 -0.06584,0.100949 -0.01536,0.02414 -0.05486,0.0417 -0.03731,0.01536 -0.0812,0.02853 -0.0417,0.01097 -0.08339,0.01756 -0.0417,0.0044 -0.06364,0.0044 -0.03511,0 -0.06145,-0.03511 -0.02414,-0.03731 -0.0395,-0.10095 -0.01536,-0.06584 -0.02414,-0.155812 -0.0066,-0.08998 -0.0066,-0.197509 0,-0.10095 0.01317,-0.230428 0.01317,-0.129478 0.03072,-0.26554 0.01975,-0.136062 0.0417,-0.267734 0.02194,-0.133868 0.0395,-0.239206 0.02414,-0.14484 0.03731,-0.247984 0.01317,-0.103143 0.01317,-0.171174 0,-0.05267 0.03072,-0.08778 0.03072,-0.03731 0.08559,-0.03731 0.219455,0 0.219455,0.300652 0,0.07242 -0.01097,0.162397 -0.01097,0.08998 -0.02853,0.190925 -0.01536,0.09876 -0.03511,0.204093 -0.01756,0.103144 -0.03731,0.204093 -0.01756,0.100949 -0.03072,0.195315 -0.01317,0.09437 -0.01756,0.171174 0.05925,-0.05706 0.149229,-0.179953 0.08998,-0.122894 0.210676,-0.316014 0.122895,-0.19312 0.228233,-0.340155 0.107533,-0.149229 0.199704,-0.254567 0.184342,-0.208482 0.397213,-0.208482 0.05267,0 0.09217,0.02633 0.0395,0.02414 0.06803,0.07023 0.03072,0.04389 0.05047,0.103144 0.01975,0.05706 0.03292,0.122894 0.02633,0.125089 0.04609,0.294069 0.01975,0.16898 0.03511,0.326988 0.01536,0.153618 0.04389,0.230427 0.02853,0.07462 0.0417,0.07462 0.02414,0 0.05925,-0.0417 0.03731,-0.04389 0.07681,-0.109727 0.0417,-0.06803 0.08339,-0.149229 0.04389,-0.0812 0.0812,-0.158008 0.03731,-0.079 0.06803,-0.142645 0.03072,-0.06584 0.04828,-0.09876 0.07681,-0.151423 0.147035,-0.256761 0.07242,-0.105339 0.142645,-0.168981 0.07242,-0.06584 0.14484,-0.09436 0.07462,-0.03072 0.155813,-0.03072 0.07681,0 0.127284,0.03292 0.05267,0.03292 0.08778,0.08778 0.03731,0.05486 0.06364,0.122895 0.02633,0.06803 0.05267,0.140451 0.01975,0.05706 0.03292,0.147034 0.01536,0.08778 0.02633,0.179953 0.01317,0.08998 0.02414,0.16898 0.01097,0.079 0.02414,0.116311 0.02853,0.08339 0.05925,0.151424 0.03292,0.06803 0.07023,0.116311 0.0395,0.04608 0.08559,0.07242 0.04828,0.02633 0.107533,0.02633 0.160202,0 0.318209,-0.129478 0.160202,-0.131673 0.351127,-0.405991 0.01097,-0.01536 0.02414,-0.01975 0.01317,-0.0066 0.02414,-0.0066 0.03292,0 0.03292,0.05706 z"
       id="path5134-7"
       style="fill:#000000" />
    <path
       d="m 34.103905,16.970876 q 0,-0.02414 -0.01317,-0.04389 -0.01317,-0.01975 -0.03292,-0.03292 -0.01756,-0.01317 -0.0395,-0.01975 -0.01975,-0.0088 -0.03511,-0.0088 -0.09656,0 -0.197509,0.07023 -0.100949,0.06803 -0.188731,0.190926 -0.08778,0.122894 -0.153618,0.291874 -0.06584,0.16898 -0.08998,0.366489 0.03072,-0.01975 0.0812,-0.05706 0.05047,-0.03731 0.107533,-0.0812 0.05925,-0.04609 0.116311,-0.09217 0.05925,-0.04609 0.105338,-0.08559 0.100949,-0.08559 0.166785,-0.151424 0.06584,-0.06803 0.103144,-0.122895 0.0395,-0.05706 0.05486,-0.109727 0.01536,-0.05486 0.01536,-0.114116 z m 1.018269,0.937071 q 0,0.07681 -0.05706,0.166785 -0.05706,0.08998 -0.162397,0.201899 -0.1207,0.127283 -0.26554,0.237011 -0.14484,0.107532 -0.298458,0.188731 -0.153618,0.079 -0.311626,0.125089 -0.158007,0.04608 -0.305041,0.04608 -0.344544,0 -0.533275,-0.221649 -0.188731,-0.221649 -0.188731,-0.649586 0,-0.136061 0.02414,-0.276512 0.02414,-0.142646 0.07023,-0.280902 0.04828,-0.138257 0.118506,-0.267735 0.07242,-0.129478 0.166785,-0.2414 0.05925,-0.06803 0.131673,-0.138256 0.07242,-0.07023 0.160202,-0.125089 0.08778,-0.05706 0.190925,-0.09217 0.105339,-0.03511 0.228233,-0.03511 0.08778,0 0.158008,0.03511 0.07023,0.03292 0.118505,0.08559 0.04828,0.05267 0.07242,0.118505 0.02634,0.06584 0.02634,0.129479 0,0.133867 -0.07242,0.272123 -0.07242,0.136062 -0.204093,0.276513 -0.131673,0.138256 -0.316015,0.278707 -0.184342,0.138257 -0.41038,0.276513 -0.03072,0.01756 -0.06145,0.0395 -0.03072,0.01975 -0.03072,0.05048 0,0.06584 0.01756,0.138256 0.01756,0.07242 0.06364,0.133867 0.04609,0.05925 0.122895,0.09876 0.079,0.0395 0.199704,0.0395 0.153618,0 0.311625,-0.04828 0.160202,-0.05047 0.311626,-0.138257 0.153618,-0.08778 0.296263,-0.208482 0.14484,-0.1207 0.26993,-0.261151 0.07022,-0.07681 0.111921,-0.07681 0.02414,0 0.03511,0.02853 0.01097,0.02853 0.01097,0.09437 z"
       style="fill:#000000"
       id="path5131-6" />
  </g>
  <g
     aria-label="Ludo Game"
     transform="scale(0.89968753,1.111497)"
     id="text3929"
     style="font-size:4.49443px;font-family:'Segoe Script';-inkscape-font-specification:'Segoe Script';display:inline;fill:#00ff00;stroke-width:0.187268"
     sodipodi:insensitive="true">
    <path
       d="m 10.659571,18.737485 q -0.04389,0.05486 -0.111922,0.08998 -0.06803,0.03292 -0.1207,0.03292 -0.03072,0 -0.07681,0.0022 -0.04608,0 -0.09656,0.0022 -0.04828,0 -0.09436,0.0022 -0.04609,0 -0.07681,0 -0.1404512,0 -0.2940694,0.02414 -0.1514237,0.02195 -0.3028474,0.05925 -0.1514236,0.03511 -0.3006527,0.07462 -0.1470346,0.0417 -0.2787074,0.07681 -0.1316727,0.03731 -0.2457891,0.05925 -0.1119219,0.02414 -0.1931201,0.02414 -0.1316727,0 -0.2062873,-0.06145 -0.07242,-0.05925 -0.076809,-0.142645 -0.00439,-0.05267 0,-0.125089 0.00439,-0.07242 0.017556,-0.158008 0.013167,-0.08559 0.030724,-0.179952 0.017556,-0.09656 0.039502,-0.195315 0.013167,-0.06584 0.032918,-0.171174 0.021946,-0.105339 0.041696,-0.219455 0.019751,-0.116311 0.037307,-0.223844 0.017556,-0.109727 0.028529,-0.179953 0.02414,-0.160201 0.043891,-0.287485 0.021945,-0.129478 0.039502,-0.247984 0.019751,-0.118505 0.037307,-0.239205 0.017556,-0.122895 0.032918,-0.274318 0.013167,-0.164591 0.017556,-0.29407 0.00658,-0.129478 0.028529,-0.21726 0.02414,-0.08998 0.074615,-0.136062 0.052669,-0.04828 0.1602019,-0.04828 0.061447,0 0.1009491,0.02414 0.041696,0.02414 0.068031,0.06364 0.026335,0.0395 0.039502,0.08998 0.013167,0.05047 0.017556,0.100949 0.00219,0.01536 -0.015362,0.09875 -0.015362,0.08339 -0.041696,0.208482 -0.026335,0.122895 -0.059253,0.274318 -0.032918,0.151424 -0.065836,0.307237 -0.030724,0.155813 -0.059253,0.302847 -0.026335,0.14484 -0.041696,0.254568 -0.013167,0.09656 -0.032918,0.208481 -0.017556,0.109728 -0.037307,0.223844 -0.019751,0.111922 -0.039502,0.223844 -0.019751,0.111922 -0.035113,0.210676 -0.015362,0.09656 -0.02414,0.175564 -0.00658,0.07681 -0.00219,0.122894 0.00439,0.0395 0.032918,0.07242 0.028529,0.03292 0.076809,0.03292 0.052669,0 0.1316728,-0.01317 0.081198,-0.01536 0.1711745,-0.03731 0.092171,-0.02414 0.1865364,-0.05047 0.094366,-0.02853 0.1799528,-0.05267 0.019751,-0.0066 0.074615,-0.01756 0.057058,-0.01317 0.1294782,-0.02853 0.074615,-0.01536 0.1580073,-0.03072 0.083393,-0.01536 0.1558127,-0.02853 0.074615,-0.01317 0.1316727,-0.02194 0.05706,-0.0088 0.079,-0.0088 0.02853,0 0.079,-0.0066 0.05267,-0.0066 0.118506,-0.01097 0.06584,-0.0044 0.142645,-0.0044 0.07681,0 0.153618,0.01536 0.0395,0.0088 0.05925,0.0395 0.01975,0.02853 0.02195,0.06803 0.0022,0.0395 -0.0088,0.079 -0.01097,0.0395 -0.03292,0.06803 z"
       style="fill:#ff0000"
       id="path5152" />
    <path
       d="m 13.960168,18.195432 q 0,0.01975 -0.0088,0.04609 -0.0088,0.02633 -0.02195,0.05486 -0.01317,0.02853 -0.02853,0.05486 -0.01536,0.02414 -0.02853,0.04389 -0.0417,0.05706 -0.105339,0.114117 -0.06145,0.05706 -0.14045,0.105338 -0.07681,0.04608 -0.168981,0.07681 -0.08998,0.02853 -0.18873,0.02853 -0.127284,0 -0.234817,-0.0417 -0.105338,-0.04389 -0.188731,-0.136062 -0.0812,-0.09217 -0.140451,-0.239206 -0.05706,-0.147034 -0.08998,-0.355516 -0.06145,0.0812 -0.14484,0.188731 -0.0812,0.107532 -0.179953,0.219454 -0.09656,0.111922 -0.206287,0.221649 -0.107533,0.107533 -0.21726,0.19312 -0.109728,0.08559 -0.21726,0.138257 -0.105339,0.05267 -0.201899,0.05267 -0.02194,0 -0.07242,-0.02853 -0.04828,-0.03072 -0.100949,-0.07681 -0.05267,-0.04609 -0.09875,-0.105338 -0.04609,-0.05925 -0.06145,-0.118506 -0.03731,-0.129478 -0.03731,-0.263345 0,-0.136062 0.02195,-0.267735 0.02633,-0.147035 0.07681,-0.307236 0.05267,-0.160202 0.107532,-0.311626 0.05486,-0.153618 0.09876,-0.28968 0.04389,-0.138256 0.05267,-0.2414 0.0088,-0.01536 0.03511,-0.03511 0.02633,-0.02194 0.05706,-0.0395 0.03072,-0.01975 0.05925,-0.03072 0.03072,-0.01317 0.04828,-0.01317 0.02633,0 0.05706,0.01756 0.03072,0.01756 0.05706,0.04389 0.02633,0.02633 0.0417,0.05486 0.01756,0.02853 0.01756,0.05047 0,0.01756 -0.01317,0.05925 -0.01097,0.0417 -0.03072,0.09656 -0.01975,0.05267 -0.04608,0.111922 -0.02633,0.05706 -0.05267,0.105338 -0.05047,0.116311 -0.100949,0.221649 -0.04828,0.103144 -0.08778,0.208482 -0.0395,0.103143 -0.06584,0.21726 -0.02414,0.111922 -0.02414,0.245789 0,0.03511 0.0088,0.08998 0.0088,0.05267 0.02414,0.105338 0.01756,0.05047 0.0417,0.08778 0.02633,0.03511 0.06145,0.03511 0.03511,0 0.079,-0.01756 0.04389,-0.01756 0.08998,-0.0417 0.04608,-0.02633 0.08778,-0.05486 0.04389,-0.03072 0.07681,-0.05486 0.08559,-0.06364 0.171175,-0.149229 0.08778,-0.08559 0.162396,-0.173369 0.07681,-0.08778 0.136062,-0.164591 0.06145,-0.079 0.09217,-0.127284 0.04828,-0.07681 0.08998,-0.166785 0.04389,-0.09217 0.0812,-0.182148 0.0395,-0.09217 0.079,-0.177758 0.0395,-0.08778 0.0812,-0.153618 0.04389,-0.06584 0.09217,-0.105338 0.04828,-0.0417 0.109727,-0.0417 0.04828,0 0.07242,0.01756 0.02633,0.01756 0.03731,0.04389 0.01317,0.02633 0.01536,0.05706 0.0022,0.03072 0.0022,0.05706 0,0.01756 -0.02633,0.079 -0.02633,0.05925 -0.05706,0.14484 -0.03072,0.08339 -0.05706,0.184342 -0.02633,0.09875 -0.02633,0.195314 0,0.142646 0.03072,0.263346 0.03072,0.1207 0.08559,0.210676 0.05486,0.08998 0.129479,0.140451 0.07681,0.05048 0.166785,0.05048 0.09875,0 0.212871,-0.03731 0.114117,-0.03731 0.221649,-0.116311 0.0066,-0.0066 0.02634,-0.02414 0.02194,-0.01975 0.04608,-0.0395 0.02633,-0.01975 0.04828,-0.03511 0.02195,-0.01536 0.03292,-0.01536 0.01756,0 0.03292,0.01097 0.01536,0.01097 0.01536,0.03511 z"
       style="fill:#0000ff"
       id="path5149" />
    <path
       d="m 17.425357,18.217378 q 0,0.01317 -0.01097,0.0417 -0.0088,0.02853 -0.02195,0.05925 -0.01317,0.02853 -0.02853,0.05706 -0.01317,0.02633 -0.02194,0.03731 -0.08559,0.12509 -0.177758,0.230428 -0.09217,0.105338 -0.195315,0.184342 -0.100949,0.07681 -0.21726,0.1207 -0.114116,0.0417 -0.245789,0.0417 -0.05267,0 -0.111922,-0.02414 -0.05706,-0.02414 -0.111922,-0.06803 -0.05267,-0.04389 -0.100949,-0.103144 -0.04828,-0.05925 -0.0812,-0.129478 -0.0395,-0.08339 -0.07023,-0.190925 -0.02853,-0.109728 -0.04828,-0.234817 -0.01756,-0.125089 -0.02633,-0.261151 -0.0088,-0.138256 -0.0088,-0.283096 -0.274319,0.511329 -0.711033,0.908542 -0.438909,0.399407 -0.908542,0.399407 -0.129478,0 -0.197509,-0.138256 -0.06803,-0.136062 -0.06803,-0.283096 0,-0.19751 0.03292,-0.29407 0.09217,-0.280902 0.210676,-0.526691 0.1207,-0.245789 0.291875,-0.4828 0.111922,-0.153618 0.254567,-0.307236 0.14484,-0.153618 0.272124,-0.219455 0.158007,-0.08559 0.454271,-0.08559 0.103144,0 0.175564,0.114116 0.07242,0.114117 0.109727,0.26554 0.03731,0.160202 0.03731,0.250179 0.03292,-0.107533 0.05925,-0.21726 0.02633,-0.111922 0.04608,-0.230428 0.01975,-0.118505 0.03511,-0.247983 0.01756,-0.131673 0.03072,-0.280902 0.0044,-0.0395 0.0088,-0.100949 0.0044,-0.06145 0.01097,-0.14484 0.01317,-0.171175 0.02633,-0.287486 0.01317,-0.118505 0.03511,-0.153618 0.05267,-0.08998 0.184342,-0.08998 0.06584,0 0.129478,0.02853 0.06803,0.02633 0.06803,0.07461 0,0.02633 -0.01097,0.08559 -0.0088,0.05925 -0.02633,0.153619 -0.01756,0.09437 -0.04828,0.234816 -0.02853,0.138256 -0.06364,0.331376 -0.0022,0.02195 -0.01317,0.08778 -0.01097,0.06584 -0.02414,0.140451 -0.01317,0.07242 -0.02414,0.136062 -0.01097,0.06145 -0.01317,0.07681 -0.02853,0.177758 -0.0417,0.335766 -0.01317,0.158007 -0.01317,0.318209 0,0.559609 0.08998,0.836122 0.09217,0.276513 0.234816,0.276513 0.08339,0 0.160202,-0.02414 0.07681,-0.02633 0.151424,-0.07681 0.07681,-0.05047 0.155813,-0.12509 0.079,-0.07681 0.166785,-0.177758 0.05047,-0.05706 0.09217,-0.100949 0.0417,-0.04389 0.079,-0.04389 0.02414,0 0.03072,0.03731 0.0088,0.03511 0.0088,0.07023 z m -1.705163,-0.594722 q -0.05706,-0.01317 -0.08778,-0.05706 -0.02853,-0.04389 -0.02853,-0.09876 0,-0.04389 0.01317,-0.129478 0.01317,-0.08559 0.01317,-0.131673 0,-0.0395 -0.02194,-0.08778 -0.01975,-0.05047 -0.05267,-0.09217 -0.03292,-0.04389 -0.07461,-0.07242 -0.0395,-0.03072 -0.079,-0.03072 -0.116311,0 -0.316014,0.243594 -0.100949,0.12509 -0.186537,0.239206 -0.08339,0.114116 -0.153618,0.226038 -0.07681,0.1207 -0.131673,0.221649 -0.05267,0.100949 -0.08998,0.179953 -0.129478,0.278707 -0.129478,0.438909 0,0.204093 0.138256,0.204093 0.122895,0 0.33796,-0.142645 0.221649,-0.151424 0.342349,-0.272124 0.125089,-0.131673 0.208482,-0.221649 0.08339,-0.08998 0.131673,-0.14484 0.04828,-0.05486 0.08778,-0.122895 0.0417,-0.06803 0.079,-0.149229 z"
       id="path5146" />
    <path
       d="m 19.317055,17.53268 q 0,0.07023 -0.0066,0.133867 -0.0066,0.06364 -0.01975,0.122894 -0.01317,0.05925 -0.03511,0.1207 -0.02195,0.05925 -0.05267,0.122895 -0.03072,0.06803 -0.111922,0.162396 -0.0812,0.09437 -0.195315,0.195315 -0.111922,0.100949 -0.247983,0.199704 -0.133868,0.09875 -0.272124,0.177758 -0.138256,0.079 -0.272124,0.127284 -0.131673,0.04828 -0.239205,0.04828 -0.147035,0 -0.256762,-0.04828 -0.109727,-0.05047 -0.182147,-0.129479 -0.07242,-0.0812 -0.109728,-0.184341 -0.03511,-0.103144 -0.03511,-0.208482 0,-0.07023 0.01756,-0.160202 0.01756,-0.08998 0.04609,-0.186537 0.02853,-0.09656 0.06803,-0.197509 0.0395,-0.100949 0.08339,-0.19312 0.04389,-0.09217 0.08998,-0.171174 0.04609,-0.079 0.08998,-0.133868 0.07681,-0.09656 0.184342,-0.188731 0.109727,-0.09217 0.239205,-0.162396 0.129478,-0.07242 0.276513,-0.116311 0.149229,-0.04389 0.307236,-0.04389 0.118506,0 0.232622,0.05925 0.114117,0.05706 0.201898,0.155813 0.08998,0.09875 0.14484,0.228232 0.05486,0.129479 0.05486,0.26993 z m -0.342349,0.06364 q 0,-0.21726 -0.125089,-0.340154 -0.122895,-0.122895 -0.355517,-0.122895 -0.079,0 -0.160201,0.0417 -0.0812,0.0417 -0.155813,0.103143 -0.07462,0.06145 -0.138257,0.131673 -0.06145,0.06803 -0.103143,0.122895 -0.0417,0.05706 -0.09217,0.155812 -0.05048,0.09656 -0.09656,0.208482 -0.04389,0.109727 -0.07462,0.221649 -0.02853,0.109728 -0.02853,0.19312 0,0.05047 0.01975,0.103144 0.01975,0.05047 0.05486,0.09217 0.03731,0.0395 0.08778,0.06584 0.05047,0.02633 0.111921,0.02633 0.06584,0 0.16898,-0.0395 0.105339,-0.0395 0.22165,-0.107533 0.118505,-0.07022 0.23701,-0.164591 0.118506,-0.09656 0.212871,-0.208481 0.09656,-0.111922 0.155813,-0.234817 0.05925,-0.122894 0.05925,-0.247984 z"
       style="fill:#ffcc00"
       id="path5143" />
    <path
       d="m 24.790252,15.978941 q 0,0.09875 -0.05486,0.16898 -0.05267,0.06803 -0.151424,0.06803 -0.03731,0 -0.08339,-0.03292 -0.04389,-0.03511 -0.0812,-0.06803 -0.03511,-0.03511 -0.0812,-0.06145 -0.04609,-0.02633 -0.100949,-0.02633 -0.26993,0 -0.695671,0.179953 -0.212871,0.09217 -0.397213,0.210676 -0.184342,0.116311 -0.3621,0.263346 -0.177759,0.147034 -0.33796,0.326987 -0.158008,0.177758 -0.278708,0.355517 -0.111922,0.160201 -0.175563,0.388434 -0.05925,0.223844 -0.05925,0.436715 0,0.100949 0.103144,0.210676 0.103143,0.105338 0.21287,0.136062 0.133868,0.03511 0.31821,0.03511 0.138256,0.0022 0.296263,-0.03292 0.158008,-0.03731 0.316015,-0.09876 0.158007,-0.06364 0.307236,-0.142645 0.149229,-0.0812 0.272124,-0.16898 0.04389,-0.03511 0.09217,-0.0812 0.05047,-0.04828 0.100949,-0.111922 0.05267,-0.06364 0.08778,-0.118505 0.03731,-0.05486 0.05925,-0.103144 0.01536,-0.02194 0.01536,-0.05706 0,-0.03292 -0.01536,-0.0812 -0.01317,-0.05048 -0.01317,-0.0812 0,-0.0812 0.19751,-0.0812 0.06145,0 0.184341,0.09217 0.122895,0.09217 0.122895,0.142646 0,0.0066 -0.136062,0.278707 -0.06803,0.136062 -0.105338,0.210677 -0.03511,0.07461 -0.0417,0.08998 -0.03731,0.08559 -0.07461,0.19312 -0.03731,0.105338 -0.07462,0.234817 -0.07681,0.261151 -0.07681,0.370878 -0.0044,0.02414 0.0044,0.04608 0.01097,0.02414 0.02195,0.0417 0.01317,0.01975 0.02414,0.03292 0.01317,0.01536 0.01317,0.01975 0,0.05267 -0.01975,0.09656 -0.01756,0.04609 -0.05047,0.079 -0.03072,0.03511 -0.07681,0.05486 -0.04389,0.01975 -0.09656,0.01975 -0.114117,0 -0.153619,-0.079 -0.0395,-0.07681 -0.0395,-0.208482 0,-0.03511 0.0022,-0.06803 0.0044,-0.03292 0.0088,-0.06584 0.01317,-0.06803 0.03292,-0.151424 0.01097,-0.0417 0.01975,-0.07242 0.0088,-0.03292 0.01317,-0.05486 0.03072,-0.122895 0.03072,-0.166786 0,-0.02194 -0.0088,-0.02194 -0.04609,0 -0.287485,0.1207 -0.122895,0.05925 -0.19751,0.09436 -0.07242,0.03511 -0.09875,0.04609 -0.381851,0.155813 -0.719811,0.155813 -0.21726,0 -0.45866,-0.08778 -0.245789,-0.08998 -0.412575,-0.256762 -0.166785,-0.16898 -0.166785,-0.390629 0,-0.649586 0.599111,-1.345257 0.263345,-0.305042 0.513523,-0.515718 0.245789,-0.204093 0.601306,-0.38624 0.05706,-0.03072 0.129478,-0.06145 0.07242,-0.03292 0.160202,-0.06584 0.177758,-0.06803 0.353322,-0.118505 0.175564,-0.05048 0.326987,-0.07023 0.09437,-0.01317 0.283097,-0.01317 0.06803,-0.0022 0.133867,0.02633 0.06584,0.02633 0.116311,0.07681 0.05047,0.04828 0.0812,0.111922 0.03072,0.06364 0.02853,0.131673 z"
       style="fill:#ff0000"
       id="path5140" />
    <path
       d="m 26.431773,17.33956 q 0,-0.164591 -0.05047,-0.237011 -0.04828,-0.07242 -0.111922,-0.07242 -0.05486,0 -0.111921,0.02195 -0.05486,0.01975 -0.105339,0.05267 -0.05047,0.03292 -0.09217,0.07242 -0.0417,0.0395 -0.06803,0.07681 -0.05267,0.07023 -0.111921,0.160202 -0.05706,0.08998 -0.116311,0.188731 -0.05706,0.09876 -0.109728,0.201898 -0.05267,0.103144 -0.09436,0.201898 -0.0395,0.09656 -0.06364,0.186537 -0.02414,0.08778 -0.02414,0.158007 0,0.103144 0.0395,0.166786 0.0395,0.06145 0.149229,0.06145 0.03731,0 0.109727,-0.04609 0.07242,-0.04828 0.153619,-0.120701 0.08339,-0.07242 0.162396,-0.155812 0.079,-0.08559 0.129478,-0.162397 0.05486,-0.0812 0.109727,-0.177758 0.05706,-0.09656 0.103144,-0.197509 0.04609,-0.100949 0.07462,-0.197509 0.02853,-0.09876 0.02853,-0.182147 z m 1.226751,0.978767 q 0,0.03511 -0.01536,0.0812 -0.01317,0.04389 -0.04389,0.08998 -0.0395,0.06803 -0.105338,0.140451 -0.06364,0.07023 -0.14484,0.129478 -0.079,0.05706 -0.173369,0.09436 -0.09437,0.03731 -0.195315,0.03731 -0.131673,0 -0.228233,-0.05925 -0.09436,-0.05925 -0.16459,-0.160202 -0.06803,-0.103144 -0.114117,-0.239206 -0.04389,-0.136061 -0.07242,-0.287485 -0.09656,0.140451 -0.230427,0.278707 -0.131673,0.138257 -0.274318,0.250178 -0.140451,0.109728 -0.278708,0.179953 -0.136062,0.06803 -0.2414,0.06803 -0.07023,0 -0.136062,-0.03511 -0.06364,-0.03511 -0.114116,-0.09436 -0.04828,-0.05925 -0.07681,-0.136062 -0.02853,-0.07681 -0.02853,-0.162396 0,-0.08559 0.01317,-0.179953 0.01536,-0.09437 0.04828,-0.201898 0.03511,-0.109728 0.08778,-0.237011 0.05486,-0.127284 0.133867,-0.278708 0.08778,-0.171174 0.208482,-0.322598 0.1207,-0.153618 0.245789,-0.267734 0.125089,-0.116311 0.237011,-0.182148 0.114117,-0.06803 0.184342,-0.06803 0.01975,0 0.04389,0.0088 0.02633,0.0088 0.05267,0.01975 0.02853,0.0088 0.05267,0.01756 0.02633,0.0066 0.04389,0.0066 0.01756,0 0.03511,-0.0066 0.01756,-0.0088 0.03511,-0.01756 0.01756,-0.01097 0.03511,-0.01975 0.01756,-0.0088 0.03511,-0.0088 0.02633,0 0.05706,0.01756 0.03072,0.01756 0.05925,0.04608 0.02853,0.02634 0.05047,0.06145 0.02195,0.03511 0.03072,0.06803 0.0088,0.0395 0.02195,0.05925 0.01536,0.01756 0.02853,0.03292 0.01536,0.01536 0.02414,0.03731 0.01097,0.01975 0.01097,0.06364 0,0.02195 -0.01536,0.09217 -0.01536,0.07023 -0.03511,0.164591 -0.01756,0.09217 -0.03292,0.19312 -0.01536,0.100949 -0.01536,0.184342 0,0.234817 0.02633,0.384046 0.02633,0.149229 0.07242,0.237011 0.04609,0.08559 0.107533,0.118505 0.06364,0.03292 0.133867,0.03292 0.166786,0 0.272124,-0.05706 0.107533,-0.05706 0.190926,-0.16898 0.02414,-0.03072 0.0417,-0.05486 0.01756,-0.02414 0.03511,-0.02414 0.03072,0 0.05486,0.02414 0.02633,0.02414 0.02633,0.05047 z"
       style="fill:#0000ff"
       id="path5137" />
    <path
       d="m 32.545778,17.903558 q 0,0.01975 -0.01097,0.06145 -0.01097,0.0417 -0.03292,0.09656 -0.01975,0.05267 -0.04828,0.114117 -0.02633,0.05925 -0.05925,0.114116 -0.06584,0.109727 -0.138257,0.201898 -0.07023,0.08998 -0.151423,0.155813 -0.079,0.06364 -0.173369,0.100949 -0.09437,0.03511 -0.208482,0.03511 -0.09437,0 -0.182148,-0.05047 -0.08778,-0.05047 -0.162396,-0.140451 -0.07242,-0.09217 -0.129478,-0.21726 -0.05706,-0.127283 -0.08998,-0.280902 -0.02633,-0.1207 -0.04609,-0.232622 -0.01756,-0.111921 -0.0395,-0.197509 -0.01975,-0.08559 -0.04609,-0.136062 -0.02633,-0.05047 -0.06584,-0.05047 -0.04609,0 -0.09875,0.0417 -0.05048,0.0395 -0.114117,0.129478 -0.06364,0.08778 -0.142645,0.230428 -0.07681,0.142645 -0.175564,0.344544 -0.079,0.162396 -0.142645,0.276512 -0.06145,0.114117 -0.116311,0.186537 -0.05486,0.07023 -0.103144,0.103143 -0.04828,0.03292 -0.09876,0.03292 -0.03731,0 -0.07461,-0.01536 -0.03731,-0.01536 -0.07023,-0.0395 -0.03072,-0.02633 -0.05706,-0.05925 -0.02414,-0.03292 -0.03731,-0.06803 -0.02414,-0.07242 -0.0417,-0.195314 -0.01536,-0.125089 -0.03292,-0.294069 -0.01756,-0.155813 -0.03072,-0.263346 -0.01317,-0.109727 -0.03072,-0.186536 -0.01536,-0.07681 -0.03731,-0.129479 -0.01975,-0.05267 -0.05267,-0.09656 -0.07681,0.0044 -0.226038,0.182148 -0.151424,0.179952 -0.267735,0.359905 -0.114116,0.177758 -0.219455,0.355517 -0.03072,0.05267 -0.07023,0.1207 -0.0395,0.06803 -0.0812,0.138256 -0.0395,0.06803 -0.079,0.129478 -0.03731,0.06145 -0.06584,0.100949 -0.01536,0.02414 -0.05486,0.0417 -0.03731,0.01536 -0.0812,0.02853 -0.0417,0.01097 -0.08339,0.01756 -0.0417,0.0044 -0.06364,0.0044 -0.03511,0 -0.06145,-0.03511 -0.02414,-0.03731 -0.0395,-0.10095 -0.01536,-0.06584 -0.02414,-0.155812 -0.0066,-0.08998 -0.0066,-0.197509 0,-0.10095 0.01317,-0.230428 0.01317,-0.129478 0.03072,-0.26554 0.01975,-0.136062 0.0417,-0.267734 0.02194,-0.133868 0.0395,-0.239206 0.02414,-0.14484 0.03731,-0.247984 0.01317,-0.103143 0.01317,-0.171174 0,-0.05267 0.03072,-0.08778 0.03072,-0.03731 0.08559,-0.03731 0.219455,0 0.219455,0.300652 0,0.07242 -0.01097,0.162397 -0.01097,0.08998 -0.02853,0.190925 -0.01536,0.09876 -0.03511,0.204093 -0.01756,0.103144 -0.03731,0.204093 -0.01756,0.100949 -0.03072,0.195315 -0.01317,0.09437 -0.01756,0.171174 0.05925,-0.05706 0.149229,-0.179953 0.08998,-0.122894 0.210676,-0.316014 0.122895,-0.19312 0.228233,-0.340155 0.107533,-0.149229 0.199704,-0.254567 0.184342,-0.208482 0.397213,-0.208482 0.05267,0 0.09217,0.02633 0.0395,0.02414 0.06803,0.07023 0.03072,0.04389 0.05047,0.103144 0.01975,0.05706 0.03292,0.122894 0.02633,0.125089 0.04609,0.294069 0.01975,0.16898 0.03511,0.326988 0.01536,0.153618 0.04389,0.230427 0.02853,0.07462 0.0417,0.07462 0.02414,0 0.05925,-0.0417 0.03731,-0.04389 0.07681,-0.109727 0.0417,-0.06803 0.08339,-0.149229 0.04389,-0.0812 0.0812,-0.158008 0.03731,-0.079 0.06803,-0.142645 0.03072,-0.06584 0.04828,-0.09876 0.07681,-0.151423 0.147035,-0.256761 0.07242,-0.105339 0.142645,-0.168981 0.07242,-0.06584 0.14484,-0.09436 0.07462,-0.03072 0.155813,-0.03072 0.07681,0 0.127284,0.03292 0.05267,0.03292 0.08778,0.08778 0.03731,0.05486 0.06364,0.122895 0.02633,0.06803 0.05267,0.140451 0.01975,0.05706 0.03292,0.147034 0.01536,0.08778 0.02633,0.179953 0.01317,0.08998 0.02414,0.16898 0.01097,0.079 0.02414,0.116311 0.02853,0.08339 0.05925,0.151424 0.03292,0.06803 0.07023,0.116311 0.0395,0.04608 0.08559,0.07242 0.04828,0.02633 0.107533,0.02633 0.160202,0 0.318209,-0.129478 0.160202,-0.131673 0.351127,-0.405991 0.01097,-0.01536 0.02414,-0.01975 0.01317,-0.0066 0.02414,-0.0066 0.03292,0 0.03292,0.05706 z"
       id="path5134" />
    <path
       d="m 34.103905,16.970876 q 0,-0.02414 -0.01317,-0.04389 -0.01317,-0.01975 -0.03292,-0.03292 -0.01756,-0.01317 -0.0395,-0.01975 -0.01975,-0.0088 -0.03511,-0.0088 -0.09656,0 -0.197509,0.07023 -0.100949,0.06803 -0.188731,0.190926 -0.08778,0.122894 -0.153618,0.291874 -0.06584,0.16898 -0.08998,0.366489 0.03072,-0.01975 0.0812,-0.05706 0.05047,-0.03731 0.107533,-0.0812 0.05925,-0.04609 0.116311,-0.09217 0.05925,-0.04609 0.105338,-0.08559 0.100949,-0.08559 0.166785,-0.151424 0.06584,-0.06803 0.103144,-0.122895 0.0395,-0.05706 0.05486,-0.109727 0.01536,-0.05486 0.01536,-0.114116 z m 1.018269,0.937071 q 0,0.07681 -0.05706,0.166785 -0.05706,0.08998 -0.162397,0.201899 -0.1207,0.127283 -0.26554,0.237011 -0.14484,0.107532 -0.298458,0.188731 -0.153618,0.079 -0.311626,0.125089 -0.158007,0.04608 -0.305041,0.04608 -0.344544,0 -0.533275,-0.221649 -0.188731,-0.221649 -0.188731,-0.649586 0,-0.136061 0.02414,-0.276512 0.02414,-0.142646 0.07023,-0.280902 0.04828,-0.138257 0.118506,-0.267735 0.07242,-0.129478 0.166785,-0.2414 0.05925,-0.06803 0.131673,-0.138256 0.07242,-0.07023 0.160202,-0.125089 0.08778,-0.05706 0.190925,-0.09217 0.105339,-0.03511 0.228233,-0.03511 0.08778,0 0.158008,0.03511 0.07023,0.03292 0.118505,0.08559 0.04828,0.05267 0.07242,0.118505 0.02634,0.06584 0.02634,0.129479 0,0.133867 -0.07242,0.272123 -0.07242,0.136062 -0.204093,0.276513 -0.131673,0.138256 -0.316015,0.278707 -0.184342,0.138257 -0.41038,0.276513 -0.03072,0.01756 -0.06145,0.0395 -0.03072,0.01975 -0.03072,0.05048 0,0.06584 0.01756,0.138256 0.01756,0.07242 0.06364,0.133867 0.04609,0.05925 0.122895,0.09876 0.079,0.0395 0.199704,0.0395 0.153618,0 0.311625,-0.04828 0.160202,-0.05047 0.311626,-0.138257 0.153618,-0.08778 0.296263,-0.208482 0.14484,-0.1207 0.26993,-0.261151 0.07022,-0.07681 0.111921,-0.07681 0.02414,0 0.03511,0.02853 0.01097,0.02853 0.01097,0.09437 z"
       style="fill:#ffcc00"
       id="path5131" />
  </g>
</svg>
